<?xml version="1.0" encoding="UTF-8"?>
<svg version="1.1" xmlns="http://www.w3.org/2000/svg" width="32" height="32">
<path d="M0 0 C10.56 0 21.12 0 32 0 C32 10.56 32 21.12 32 32 C21.44 32 10.88 32 0 32 C0 21.44 0 10.88 0 0 Z " fill="#CAC4AD" transform="translate(0,0)"/>
<path d="M0 0 C10.56 0 21.12 0 32 0 C32 10.56 32 21.12 32 32 C21.44 32 10.88 32 0 32 C0 21.44 0 10.88 0 0 Z M7 6 C4.42237971 9.1504248 3.13783884 12.03512814 2.5625 16.0625 C3.30821602 21.06945045 4.88830772 24.01757427 8.6875 27.375 C12.60737933 29.29795967 15.75878403 29.93976847 20 29 C23.99269598 27.16382866 26.42907781 25.0704791 28.5 21.1875 C29.12216568 17.22119379 29.23849311 13.85044332 28 10 C24.57870401 5.74649688 21.5632678 3.27861607 16.125 2.6875 C12.31858848 3.06814115 10.18070764 3.85647963 7 6 Z " fill="#E4DAC7" transform="translate(0,0)"/>
<path d="M0 0 C0.66 0.33 1.32 0.66 2 1 C2 1.66 2 2.32 2 3 C2.66 3 3.32 3 4 3 C4 3.66 4 4.32 4 5 C4.66 5 5.32 5 6 5 C6 8.3 6 11.6 6 15 C4.35 15 2.7 15 1 15 C1 13.68 1 12.36 1 11 C-1.42672567 9.21030974 -1.42672567 9.21030974 -4 8 C-3.525625 7.566875 -3.05125 7.13375 -2.5625 6.6875 C-0.76313043 4.97690387 -0.76313043 4.97690387 0 2 C-1.32 2.33 -2.64 2.66 -4 3 C-4 3.66 -4 4.32 -4 5 C-5.98 5.33 -7.96 5.66 -10 6 C-10.33 7.65 -10.66 9.3 -11 11 C-11.66 10.67 -12.32 10.34 -13 10 C-12.52039967 3.64529559 -12.52039967 3.64529559 -10.4375 1.0625 C-6.80695544 -0.52004507 -3.95200431 -0.25496802 0 0 Z " fill="#D9D0BD" transform="translate(20,5)"/>
<path d="M0 0 C3.16420752 2.49097188 5.84711019 5.08017464 7 9 C6.625 12.75 6.625 12.75 6 16 C5.34 16 4.68 16 4 16 C4 12.7 4 9.4 4 6 C3.34 6 2.68 6 2 6 C2 5.34 2 4.68 2 4 C1.34 4 0.68 4 0 4 C0 3.34 0 2.68 0 2 C-1.58294782 1.94562393 -3.16644256 1.90703729 -4.75 1.875 C-5.63171875 1.85179687 -6.5134375 1.82859375 -7.421875 1.8046875 C-10.26368517 2.01997615 -11.75133155 2.23318907 -14 4 C-14.92252193 6.86711888 -14.92252193 6.86711888 -15.25 10.125 C-15.39953125 11.22070312 -15.5490625 12.31640625 -15.703125 13.4453125 C-15.80109375 14.28835937 -15.8990625 15.13140625 -16 16 C-16.99 15.67 -17.98 15.34 -19 15 C-19.52332051 9.63596475 -18.33432713 6.12376284 -15 2 C-10.22004181 -1.55717819 -5.56967284 -1.69556461 0 0 Z " fill="#808862" transform="translate(22,4)"/>
<path d="M0 0 C6.6 0 13.2 0 20 0 C19 5 19 5 16.9375 6.8125 C13.15488702 8.34164142 10.02714275 8.6170622 6 8 C3 6.625 3 6.625 1 5 C1 4.34 1 3.68 1 3 C1.58007812 3.144375 2.16015625 3.28875 2.7578125 3.4375 C7.26659675 4.50889428 11.33054247 5.23945936 16 5 C16 4.34 16 3.68 16 3 C14.19747131 2.29805007 14.19747131 2.29805007 12 2 C11.4225 2.350625 10.845 2.70125 10.25 3.0625 C6.59301766 4.58624264 3.72045788 3.11613736 0 2 C0 1.34 0 0.68 0 0 Z " fill="#8F9374" transform="translate(6,21)"/>
<path d="M0 0 C-0.57344937 2.86724686 -0.8614515 3.8614515 -3 6 C-1.35 6.99 0.3 7.98 2 9 C1.34 10.32 0.68 11.64 0 13 C-2.64 13 -5.28 13 -8 13 C-8.66 11.68 -9.32 10.36 -10 9 C-8.68 8.01 -7.36 7.02 -6 6 C-6.33 5.01 -6.66 4.02 -7 3 C-6.01 3 -5.02 3 -4 3 C-4 2.34 -4 1.68 -4 1 C-2 0 -2 0 0 0 Z " fill="#79864E" transform="translate(20,7)"/>
<path d="M0 0 C0.33 1.32 0.66 2.64 1 4 C-3.88912211 7.91129769 -6.732886 8.696346 -13 8 C-16 6.625 -16 6.625 -18 5 C-18 4.34 -18 3.68 -18 3 C-17.443125 3.15597656 -16.88625 3.31195312 -16.3125 3.47265625 C-10.78040545 4.88371415 -6.61580276 5.02105505 -1 4 C-0.67 2.68 -0.34 1.36 0 0 Z " fill="#858C68" transform="translate(25,21)"/>
<path d="M0 0 C1.32 0.66 2.64 1.32 4 2 C4 2.66 4 3.32 4 4 C4.66 4 5.32 4 6 4 C6.33 3.01 6.66 2.02 7 1 C7.99 0.67 8.98 0.34 10 0 C10 1.32 10 2.64 10 4 C9 5 9 5 7.15234375 5.09765625 C5.1015625 5.06510417 3.05078125 5.03255208 1 5 C0.34 3.68 -0.32 2.36 -1 1 C-0.67 0.67 -0.34 0.34 0 0 Z " fill="#967256" transform="translate(11,15)"/>
<path d="M0 0 C-0.33 0.99 -0.66 1.98 -1 3 C-1.66 3.309375 -2.32 3.61875 -3 3.9375 C-5.20605562 4.82027141 -5.20605562 4.82027141 -5.75 7.125 C-5.8325 7.74375 -5.915 8.3625 -6 9 C-6.66 8.67 -7.32 8.34 -8 8 C-7.74438677 5.6568787 -7.40729228 3.32156597 -7 1 C-4.53721199 -0.231394 -2.7204945 -0.07159196 0 0 Z " fill="#DFD6C3" transform="translate(15,7)"/>
<path d="M0 0 C0.66 0 1.32 0 2 0 C2 2.31 2 4.62 2 7 C0.35 7 -1.3 7 -3 7 C-1.125 1.125 -1.125 1.125 0 0 Z " fill="#E2D7C4" transform="translate(24,13)"/>
<path d="M0 0 C0.598125 0.20625 1.19625 0.4125 1.8125 0.625 C1.8125 2.275 1.8125 3.925 1.8125 5.625 C-0.20795442 5.02316251 -2.20861039 4.35193904 -4.1875 3.625 C-4.5175 2.965 -4.8475 2.305 -5.1875 1.625 C-2.1875 -0.375 -2.1875 -0.375 0 0 Z " fill="#C5A98A" transform="translate(21.1875,10.375)"/>
<path d="M0 0 C0.66 0.33 1.32 0.66 2 1 C1.67 1.66 1.34 2.32 1 3 C1.66 3.33 2.32 3.66 3 4 C1.68 4.99 0.36 5.98 -1 7 C-1.66 6.67 -2.32 6.34 -3 6 C-2.625 3.5625 -2.625 3.5625 -2 1 C-1.34 0.67 -0.68 0.34 0 0 Z " fill="#C4A889" transform="translate(12,9)"/>
<path d="M0 0 C1.4540625 0.0309375 1.4540625 0.0309375 2.9375 0.0625 C3.2675 0.7225 3.5975 1.3825 3.9375 2.0625 C2.5625 3.5625 2.5625 3.5625 0.9375 5.0625 C0.2775 5.0625 -0.3825 5.0625 -1.0625 5.0625 C-2.6875 3.0625 -2.6875 3.0625 -4.0625 1.0625 C-3.0625 0.0625 -3.0625 0.0625 0 0 Z " fill="#613D25" transform="translate(16.0625,13.9375)"/>
<path d="M0 0 C1.91015625 0.1328125 1.91015625 0.1328125 3.91015625 1.1328125 C3.58015625 1.7928125 3.25015625 2.4528125 2.91015625 3.1328125 C1.26015625 3.1328125 -0.38984375 3.1328125 -2.08984375 3.1328125 C-2.41984375 3.7928125 -2.74984375 4.4528125 -3.08984375 5.1328125 C-3.08984375 4.1428125 -3.08984375 3.1528125 -3.08984375 2.1328125 C-4.40984375 1.8028125 -5.72984375 1.4728125 -7.08984375 1.1328125 C-5.19099279 -0.76603846 -2.51736472 0.00913744 0 0 Z " fill="#CDC7B1" transform="translate(18.08984375,4.8671875)"/>
<path d="M0 0 C0.33 0.66 0.66 1.32 1 2 C1.99 2 2.98 2 4 2 C4 2.66 4 3.32 4 4 C-2.625 5.25 -2.625 5.25 -6 3 C-4.02 2.01 -2.04 1.02 0 0 Z " fill="#CDC6B1" transform="translate(18,22)"/>
<path d="M0 0 C2 2 2 2 2.125 5.125 C2.08375 6.07375 2.0425 7.0225 2 8 C1.01 7.67 0.02 7.34 -1 7 C-1.04254356 5.00045254 -1.04080783 2.99958364 -1 1 C-0.67 0.67 -0.34 0.34 0 0 Z " fill="#878E69" transform="translate(4,12)"/>
</svg>
